<?xml version="1.0" encoding="utf-8"?>
<svg stroke="black" stroke-width="0.25" stroke-dasharray="2,2" fill="none" xmlns="http://www.w3.org/2000/svg" xmlns:xlink="http://www.w3.org/1999/xlink" viewBox="0 0 100 100">

<path class="base" d="M97.886,57.09c-1.685-3.131-4.099-5.989-7.237-8.578c-0.123-1.1-0.229-1.688-0.322-1.761l-1.146-0.154l-1.189-0.094
	c-0.07-0.049-0.141-0.098-0.213-0.146l1.06-0.112c0.617-0.06,0.94-0.14,0.972-0.243c0.043-0.125-0.291-0.6-1.004-1.421
	c-0.697-0.816-1.113-1.246-1.246-1.29l-1.332-0.044l-2.48-0.011l2.26-0.364c0.757-0.125,1.146-0.228,1.168-0.31
	c0.021-0.109-0.217-0.568-0.716-1.377c-0.508-0.815-0.831-1.257-0.972-1.324l-2.258-0.109l-3.297-0.044l2.623-0.904
	c1.051-0.36,1.58-0.577,1.588-0.649c0.016-0.104-0.556-0.625-1.709-1.565c-1.183-0.97-1.906-1.469-2.171-1.499l-2.028,0.253
	l-3.416,0.562l3.438-1.047l0.793-0.254c0.097-0.095-0.132-0.261-0.683-0.496c-0.514-0.225-1.414-0.539-2.693-0.94
	c0.143-0.048,0.29-0.101,0.456-0.162c1.072-0.396,1.649-0.72,1.729-0.97c0.065-0.206,0.008-0.617-0.176-1.234l-0.408-1.234
	l1.599,1.896c0.169,0.169,0.753-0.191,1.752-1.08c0.288-0.256,0.528-0.484,0.729-0.691c0.146,0.142,0.287,0.285,0.428,0.428
	c1.169-0.713,1.753-1.139,1.753-1.279c-0.009-0.088-0.218-0.408-0.63-0.959l-1.211-1.62c1.345,0.89,2.111,1.253,2.304,1.091
	c0.146-0.117,0.356-0.701,0.628-1.752c0.287-1.072,0.386-1.734,0.298-1.984c-0.073-0.213-0.581-0.782-1.521-1.707l-2.393-2.348
	l1.995,1.047c0.728,0.381,1.124,0.496,1.19,0.342c0.154-0.354,0.062-1.48-0.275-3.385c-0.391-2.175-0.947-3.615-1.676-4.319
	c-3.26-2.312-6.811-3.703-10.651-4.183c-0.112-0.101-0.229-0.201-0.348-0.304c-2.543-2.212-4.489-3.369-5.843-3.472
	c-0.44-0.022-1.643,0.521-3.604,1.631l0.739-1.278c0.345-0.595,0.487-0.944,0.43-1.047c-0.11-0.177-0.987-0.272-2.635-0.287
	c-1.822-0.015-3.244,0.169-4.265,0.552c-0.572,0.211-1.215,0.725-1.924,1.535c-0.094-0.242-0.158-0.369-0.192-0.378
	c-0.06-0.015-0.456,0.36-1.19,1.125l-1.423,1.499l-0.849-1.531c-0.418-0.742-0.668-1.084-0.749-1.025l-1.278,1.443
	c-0.16,0.188-0.306,0.357-0.439,0.518c-2.299-2.172-4.232-3.365-5.799-3.57c-1.668-0.213-3.645-0.018-5.93,0.584
	c-1.396,0.36-2.48,0.725-3.252,1.092c-0.154,0.065-0.104,0.25,0.154,0.551l0.761,0.837l-1.257-0.529
	c-0.479-0.206-0.805-0.323-0.98-0.353c-0.588-0.088-1.535,0.51-2.844,1.795l-0.607,0.674c-4.14-0.046-7.689,0.689-10.646,2.214
	c-0.31,0.153-0.951,0.911-1.929,2.271c-0.883,1.228-1.375,1.965-1.479,2.215c-0.044,0.111,0.412,0.045,1.367-0.197l2.667-0.684
	l-2.546,1.233c-0.83,0.397-1.309,0.647-1.434,0.75c-0.213,0.185-0.672,1.349-1.377,3.494c-0.793,2.417-1.326,4.53-1.599,6.337
	c-0.065,0.456,0.007,0.639,0.22,0.551l1.049-0.684c2.623-1.706,5.541-3.139,8.746-4.305c-0.727,0.517-1.455,1.066-2.188,1.648
	c-1.433,1.131-2.651,2.212-3.659,3.24c-0.91,0.926-1.334,1.47-1.268,1.631c0.104,0.26,0.717,0.729,1.836,1.404
	c-0.473,0.225-0.943,0.455-1.418,0.701c-0.293,0.153-0.434,0.242-0.418,0.265l0.396,0.166c0.566,0.301,1.271,0.599,2.116,0.894
	l-2.965,0.144l-2.039,0.153c-0.198,0.066-1.172,0.83-2.921,2.293c-1.757,1.477-2.604,2.254-2.546,2.336
	c0.052,0.072,0.58,0.006,1.588-0.198l2.634-0.529l-4.815,2.138l-2.834,3.715l3.34-0.904l-4,2.127l-2.039,5.918l-0.045,0.363
	c0.029,0.185,0.181,0.147,0.453-0.109l4.319-4.32l-1.212,3.131c-0.544,1.396-0.79,2.139-0.739,2.227
	c0.074,0.133,1.048-0.02,2.921-0.452l1.014-3.604l0.145,1.896c0.049,0.702,0.116,1.104,0.203,1.212
	c0.091,1.015,0.355,2.236,0.8,3.67c0.529,1.704,1.052,2.925,1.565,3.659c-0.859,0.705-1.991,1.898-3.395,3.582
	c-1.339,1.602-2.338,2.936-2.998,4.001c-0.328,0.528-0.396,1.36-0.205,2.492c-0.399,0.401-0.802,0.871-1.207,1.409
	c-1.152,1.514-1.729,2.961-1.729,4.343c0,1.087,0.312,2.188,0.938,3.308c0.373,0.668,1.067,1.756,2.082,3.262
	c0.295,0.479,0.455,0.971,0.488,1.477c-0.016,0.008-0.031,0.016-0.048,0.021c-0.544,0.303-1.099,0.863-1.664,1.688
	c-0.565,0.809-0.899,1.521-1.003,2.139c-0.096,0.604-0.072,0.98,0.066,1.135c0.132,0.147,0.483,0.209,1.058,0.188
	c0.463-0.022,1.224-0.177,2.28-0.463l1.322-0.383c0.78,0.321,1.746,0.6,2.898,0.833c-0.01,0.037-0.021,0.072-0.032,0.111
	c-0.329,1.278-0.184,2.108,0.441,2.49c0.301,0.191,1.267-0.019,2.897-0.628c1.5-0.557,2.398-0.978,2.696-1.264
	c1.022,0.053,2.019,0.069,2.99,0.051l0.496,0.894c0.596,0.815,1.358,1.43,2.293,1.84c0.315,0.141,0.565,0.207,0.749,0.199
	c0.199-0.015,0.396-0.121,0.596-0.32c0.391-0.381,0.814-0.987,1.277-1.817c0.5-0.874,0.728-1.499,0.689-1.882
	c0.555-0.255,0.979-0.48,1.262-0.676c0.479-0.322,0.775-0.693,0.894-1.112c0.071-0.243,0.095-0.546,0.069-0.906
	c0.721,0.119,1.49,0.224,2.312,0.312c4.202,0.441,7.308,0.254,9.313-0.562c0.611-0.248,1.375-0.585,2.283-1.007
	c1.268,0.447,2.592,0.769,3.977,0.951c1.339,0.177,2.887,0.229,4.633,0.161c0.025,0.082,0.048,0.162,0.073,0.246l0.739,1.873
	c0.111,0.283,0.203,0.541,0.271,0.771c-0.097,0.033-0.182,0.073-0.251,0.123c-0.565,0.403-1.289,1.252-2.171,2.546
	c-0.919,1.359-1.29,2.216-1.113,2.567c0.184,0.359,1.139,0.492,2.865,0.396l2.559-0.265c0.219-0.037,0.398-0.083,0.545-0.138
	c0.192,0.127,0.396,0.25,0.611,0.369c1.598,0.865,3.643,1.357,6.133,1.479c0.072,0.256,0.256,0.516,0.547,0.779
	c0.396,0.359,1.006,0.775,1.83,1.246c0.853,0.492,1.389,0.728,1.608,0.705c0.301-0.029,0.789-0.541,1.466-1.532
	c0.439-0.644,0.729-1.14,0.868-1.497c1.501-0.188,2.771-0.443,3.806-0.771c0.279,0.073,0.631,0.133,1.059,0.176
	c0.845,0.08,1.635,0.092,2.369,0.033c0.346-0.029,0.64-0.115,0.882-0.255c0.206-0.125,0.338-0.265,0.396-0.419
	c0.186-0.499-0.103-1.326-0.859-2.479c-0.068-0.104-0.137-0.204-0.201-0.301c0.078-0.379,0.119-0.822,0.125-1.33
	c0-0.123,0.008-0.237,0.02-0.347c0.002,0.001,0.002,0.003,0.004,0.005c0.358,0.41,1.229,0.26,2.61-0.453
	c0.36-0.184,0.71-0.379,1.05-0.588c1.879,0.135,3.807,0.15,5.791,0.039c0.667,0.486,1.362,0.885,2.088,1.188
	c0.859,0.366,1.652,0.558,2.381,0.573c0.271,0.007,0.572-0.356,0.903-1.092c0.231-0.535,0.402-1.039,0.515-1.517
	c0.5-0.146,0.944-0.31,1.336-0.49c0.098,0.041,0.227,0.075,0.388,0.101c0.418,0.064,0.918,0.055,1.498-0.033
	c1.483-0.221,2.37-0.684,2.655-1.389c0.147-0.367-0.297-1.065-1.332-2.096c-0.772-0.777-1.389-1.218-1.847-1.322
	c-0.272-0.338-0.62-0.729-1.042-1.18c3.02-1.652,5.518-3.816,7.495-6.49c2.05-2.771,3.074-5.49,3.074-8.156
	C100.002,62.035,99.297,59.705,97.886,57.09z"/>

<path class="ajuda" d="M55.475,49.36c0,0.758-0.697,2.746-2.094,5.963l-2.249-1.233c-1.257-0.662-2.196-1.106-2.821-1.334
	c0.926-0.874,2.241-1.728,3.946-2.558c1.668-0.815,2.716-1.135,3.142-0.959C55.449,49.262,55.475,49.302,55.475,49.36"/>

<path class="ajuda" d="M13.062,51.862c1.06,0.521,1.801,0.959,2.228,1.312c-0.608,0.286-1.249,0.665-1.918,1.135
	c-0.396,0.279-0.903,0.67-1.521,1.17l-0.188,0.143c-0.265-0.367-0.58-1.021-0.948-1.962c-0.41-1.043-0.617-1.804-0.617-2.281
	c0-0.169,0.03-0.286,0.09-0.353c0.043-0.053,0.14-0.073,0.285-0.066C11.002,50.974,11.865,51.274,13.062,51.862"/>

<path class="ajuda" d="M17.945,66.081c-0.729,0.447-1.478,0.628-2.248,0.54c-1.021-0.103-1.834-0.661-2.437-1.675
	c-0.616-1.021-0.978-2.426-1.079-4.211c2.901,0.66,5.26,1.942,7.074,3.847C19.059,65.17,18.622,65.67,17.945,66.081"/>

<path class="ajuda" d="M40.408,64.328c1.131-1.396,2.623-2.652,4.475-3.769c1.676-1,2.773-1.435,3.295-1.302v0.286
	c0,1.911-0.268,3.465-0.805,4.662c-0.536,1.205-1.297,1.955-2.281,2.249c-0.808,0.233-1.642,0.161-2.502-0.222
	C41.716,65.839,40.988,65.203,40.408,64.328"/>

<path class="ajuda" d="M16.656,46.619c-0.073-0.06-0.11-0.742-0.11-2.05l-0.022-3.539l-1.362,6.257
	c0.901,0.151,1.847,0.33,2.834,0.538l0.547-1.206l0.655-0.571C17.6,46.501,16.75,46.692,16.656,46.619z"/>

<path class="ajuda" d="M22.302,40.46 L23.534,40.136 22.795,37.493z "/>

<path class="ajuda" d="M10.869,44.007l-0.805,2.839c0.403-0.016,0.845-0.014,1.318,0.007c-0.017-0.09-0.033-0.18-0.051-0.277
	L10.869,44.007z"/>

<path class="ajuda" d="M72.822,31.254l-0.014,1.052c0.398,0.116,0.777,0.229,1.137,0.336c-0.047-0.062-0.098-0.127-0.152-0.197
	L72.822,31.254z"/>

<path class="ajuda" d="M39.251,26.56c-0.481,0.578-0.947,1.164-1.401,1.754c0.685,0.252,1.353,0.539,2.002,0.859
	c-0.045-1.122,0.025-2.312,0.221-3.572C39.801,25.907,39.527,26.226,39.251,26.56z"/>

</svg>