<?xml version="1.0" encoding="utf-8"?>
<svg stroke="black" stroke-width="0.25" stroke-dasharray="2,2" fill="none" xmlns="http://www.w3.org/2000/svg" xmlns:xlink="http://www.w3.org/1999/xlink" viewBox="0 0 100 100">

<path class="base" d="M99.32,43.674c-0.471-3.079-0.861-5.02-1.176-5.82l-1.656-2.143c-1.219-1.53-2.242-3.01-3.07-4.438l-4.039-7.121
c-1.934-3.346-3.225-5.322-3.869-5.932c-0.109-0.109-0.379-0.203-0.803-0.275l-1.104-0.153c-0.941-0.11-1.863-0.308-2.769-0.595
l-3.067-1.521c-1.881-0.967-2.953-1.493-3.224-1.575l-1.133-0.236c-0.572-0.11-0.896-0.197-0.97-0.262l-2.155-2.088l-2.254-2.17
C67.68,9.023,67.3,8.764,66.886,8.57C66.4,8.341,65.95,8.258,65.544,8.322c-0.369,0.063-0.678,0.275-0.926,0.636
c-0.332,0.479-0.425,1.041-0.277,1.687c0.119,0.534,0.375,1.043,0.763,1.521c0.967,1.216,1.735,2.275,2.309,3.18
c0.525,0.82,0.799,1.369,0.816,1.645c0.026,0.508-0.095,1.67-0.359,3.484c-0.295,1.991-0.664,3.978-1.105,5.959
c-0.479,2.139-0.992,4.213-1.535,6.221c-0.518,1.898-0.891,3.121-1.119,3.664c-1.301,1.631-2.866,3.147-4.7,4.549l-3.359,2.435
l-2.213,1.466l-1.285-0.029c-0.44,0.074-0.741,0.166-0.897,0.276c-0.25,0.193-0.549,0.787-0.894,1.741
c-0.1,0.006-0.192,0.008-0.302,0.02c-0.659-1.274-1.282-2.795-1.862-4.595c-0.608-1.899-0.978-3.429-1.106-4.59
c-0.057-0.543-0.082-1.442-0.082-2.672c0.01-0.005,0.019-0.006,0.027-0.011c0.498-0.239,0.881-0.379,1.147-0.415l1.534-0.181
c0.591-0.102,0.988-0.267,1.189-0.498c0.387-0.47,0.601-0.944,0.635-1.422c0.629-0.738,1.187-1.628,1.675-2.67
c0.497-1.042,0.747-1.843,0.747-2.406c0-0.276-0.131-0.516-0.389-0.719l-0.565-0.4c-0.13-0.11-0.296-0.354-0.498-0.732l-0.498-1.146
l-1.052-2.973c0.037-0.607,0.023-1.193-0.041-1.756l-0.098-0.664l0.264-0.939l0.166-0.733c0.019-0.267-0.01-0.576-0.084-0.926
c-0.062-0.314-0.305-0.853-0.719-1.618l-1.01-1.854c-0.581-1.123-1.005-2.17-1.272-3.139l-0.746-3.415l-0.746-3.498
c-0.111-0.479-0.346-0.89-0.707-1.231c-0.387-0.359-0.801-0.512-1.243-0.455c-0.443,0.063-0.808,0.332-1.093,0.802
c-0.258,0.424-0.377,0.849-0.358,1.272l0.222,2.931l0.055,1.646l-0.014,1.879c0,0.646-0.181,1.162-0.541,1.549
c-0.229,0.24-0.584,0.461-1.063,0.664c-0.331,0.147-0.788,0.235-1.368,0.263c-0.562,0.019-0.964-0.027-1.203-0.138
c-0.378-0.168-1.027-0.66-1.949-1.48L35.49,8.198l-2.488-2.475C32.56,5.298,31.988,5.1,31.287,5.127
c-0.598,0.02-1.045,0.152-1.34,0.402c-0.324,0.258-0.502,0.662-0.539,1.216c-0.047,0.608,0.109,1.139,0.471,1.59l1.617,1.771
c0.912,1.004,1.543,1.814,1.894,2.433c0.472,0.829,0.899,1.751,1.286,2.765c0.441,1.143,0.664,1.98,0.664,2.516
c0,0.793-0.152,1.84-0.457,3.14c-0.341,1.382-0.512,2.221-0.512,2.516c0,0.212,0.115,0.554,0.345,1.023l0.581,1.063l0.747,0.969
l0.747,0.856l0.107,0.021l0.391,1.734c0.617,3.291,0.853,5.977,0.705,8.061c-0.244,3.234-0.721,6.109-1.424,8.635l-0.359,0.021
l-0.609,0.25c-0.885-0.904-1.662-1.85-2.335-2.836c-0.499-0.746-0.871-1.341-1.12-1.783c-0.341-0.616-0.627-1.258-0.857-1.922
c-0.166-0.487-0.377-1.576-0.635-3.262c-0.121-0.958-0.324-1.646-0.608-2.06l-1.9-2.146l-2.046-2.309
c-0.378-0.461-0.829-1.383-1.354-2.766c-0.518-1.336-0.848-2.429-0.996-3.276c-0.24-1.3-0.359-2.548-0.359-3.747
c0-1.07,0.083-1.719,0.248-1.95l4.024-4.452c0.358-0.396,0.553-0.843,0.581-1.341c0.019-0.442-0.092-0.802-0.332-1.079
c-0.322-0.369-0.812-0.502-1.467-0.4c-0.625,0.102-1.285,0.4-1.977,0.897l-3.54,2.696L17.5,17.027
c-0.083,0.063-0.312,0.184-0.691,0.359l-0.885,0.4c-0.986,0.443-1.704,0.848-2.157,1.217c-0.543,0.441-1.897,1.921-4.063,4.438
c-2.194,2.554-3.447,4.111-3.762,4.674c-0.238,0.424-0.75,1.699-1.533,3.83c-0.84,2.276-1.447,4.078-1.825,5.406
c-0.433,1.512-0.917,3.418-1.452,5.723c-0.57,2.453-0.939,4.246-1.105,5.379c-0.037,0.175-0.037,0.691,0,1.548
c0.056,1.271,0.18,3.003,0.373,5.2l0.015,0.081c0.046,0.546,0.221,0.959,0.524,1.243c0.24,0.231,0.512,0.349,0.816,0.349
c0.322,0,0.6-0.181,0.829-0.54c0.221-0.352,0.332-0.756,0.332-1.216l-0.083-0.899c-0.047-0.562-0.047-1.035,0-1.425
c1.244-1.501,2.719-2.889,4.424-4.161c1.408-1.057,2.781-1.855,4.124-2.416c-0.017,0.075-0.032,0.148-0.04,0.219
c-0.428,0.693-0.654,1.34-0.654,1.935c0,0.707,0.205,1.272,0.596,1.709c-0.129,0.159-0.267,0.333-0.416,0.531
c-0.646,0.838-0.981,1.441-1.01,1.811c-0.045,0.544,0.092,1.002,0.416,1.371l0.065,0.047c0.047,0.234,0.124,0.461,0.265,0.67
c0.24,0.342,0.562,0.576,0.969,0.706l1.133,0.151c1.005,0.056,1.613-0.133,1.826-0.567l0.095-0.196
c0.221,0.248,0.432,0.451,0.623,0.559c0.461,0.268,0.885,0.393,1.272,0.374c0.276-0.011,0.584-0.111,0.926-0.306
c1.08,0.934,2.129,1.705,3.152,2.321c1.65,0.987,3.055,1.438,4.217,1.354c0.506-0.045,1.198-0.299,2.073-0.76l0.802-0.484
l0.94-0.497l2.212-1.063l1.126-0.562c-1.454,2.795-2.458,5.438-2.992,7.933c-0.155,0.723-0.26,1.43-0.34,2.129
c-1.937,1.688-3.396,3.34-4.333,4.949c-1.512,2.58-2.135,4.788-1.867,6.623c0.148,0.979,0.701,2.108,1.659,3.399
c0.249,0.331,0.59,0.668,1.022,1.01l0.816,0.606l-0.138,0.639l-0.636,0.773c-0.452,0.469-0.918,0.869-1.396,1.2l-1.714,1.08
l-0.317,0.026l-0.14,0.027c-0.294,0.063-0.659,0.201-1.092,0.416c-0.517,0.246-0.996,0.537-1.438,0.869
c-0.791,0.616-1.267,1.18-1.424,1.688c-0.009,0.029-0.008,0.047-0.016,0.074c-0.037,0.103-0.059,0.199-0.063,0.297
c-0.001,0.014,0,0.023-0.001,0.039c0,0.043-0.009,0.088-0.003,0.131c0.002,0.017,0.024,0.021,0.033,0.037
c0.015,0.031,0.037,0.051,0.062,0.066c0.008,0.004,0.008,0.016,0.017,0.02h0.024c0.084,0.029,0.193,0.023,0.362-0.055
c0.313-0.142,0.728-0.215,1.244-0.225l1.079,0.027c-0.618,0.572-1.07,1.201-1.355,1.896c-0.147,0.342-0.24,0.657-0.275,0.953
c-0.028,0.139,0.004,0.235,0.097,0.29l0.199-0.019l0.034,0.004c0.002-0.002,0.01-0.006,0.012-0.008l0.266-0.021l0.608-0.263
c0.286-0.111,0.585-0.193,0.899-0.248l2.516-0.123l-0.29,0.58c-0.203,0.449-0.327,0.842-0.373,1.175
c-0.046,0.351,0.026,0.548,0.221,0.594c0.13,0.028,0.332-0.022,0.608-0.151l0.54-0.264c0.358-0.165,0.784-0.33,1.272-0.496
l1.092-0.277l1.022-0.233c0.646,0.201,1.106,0.281,1.384,0.233c0.331-0.055,0.612-0.161,0.842-0.317l0.457-0.438L31.3,91.37
c0.793-0.524,1.389-0.868,1.784-1.022c0.618-0.259,1.446-0.498,2.487-0.72c0.277-0.083,0.53-0.235,0.762-0.456
c0.248-0.238,0.419-0.521,0.512-0.844c0.073-0.24,0.037-0.688-0.111-1.344c-0.156-0.698-0.373-1.242-0.648-1.631l0.898-0.594
c0.58-0.435,0.977-0.688,1.188-0.761c0.024-0.008,0.055-0.013,0.08-0.021c0.397,0.231,0.804,0.457,1.221,0.662
c0.804,0.769,1.644,1.508,2.558,2.191c3.762,2.804,7.828,4.468,12.191,5.009c-0.182,0.709-0.264,1.392-0.231,2.042
c0.018,0.248,0.051,0.441,0.098,0.58c0.062,0.193,0.175,0.359,0.33,0.497l0.442,0.332l0.638,0.224l0.967,0.842l0.828,0.732
c0.187,0.193,0.431,0.539,0.733,1.037l0.222,0.316c0.166,0.223,0.28,0.338,0.347,0.347c0.108,0.009,0.284-0.216,0.524-0.679
c0.45-0.772,0.75-1.454,0.897-2.047l0.857-0.014l0.594,0.207l1.121,0.622l1.133,0.747c0.211,0.203,0.404,0.441,0.58,0.719
c0.223,0.353,0.365,0.53,0.43,0.539c0.129,0.037,0.3-0.092,0.513-0.387c0.213-0.286,0.387-0.627,0.522-1.023
c0.121-0.33,0.189-0.746,0.207-1.242v-0.637L67,95.542l1.062,0.374l0.885,0.331c0.186,0.092,0.508,0.378,0.971,0.856l0.178,0.234
l0.305,0.223c0.186-0.02,0.356-0.211,0.524-0.58c0.127-0.224,0.212-0.508,0.248-0.856c0.063-0.653-0.062-1.341-0.387-2.062
l-0.869-1.588c0.017-0.354-0.033-0.656-0.125-0.922c4.783-1.346,8.881-4.516,12.291-9.531c2.735-4.037,3.615-8.674,2.64-13.908
c-0.646-3.493-2.052-7.016-4.218-10.563l0.318-0.263l0.29-0.303c0.082-0.453,0.093-0.815,0.027-1.094l-0.016-0.082l0.264-0.195
l0.498-0.289c0.166-0.11,0.281-0.272,0.346-0.484c0.103-0.312,0.306-0.695,0.607-1.146c0.359-0.562,0.723-0.989,1.092-1.284
l3.555-2.78l0.525-0.359c0.268-0.192,0.391-0.332,0.373-0.414c-0.01-0.047-0.182-0.047-0.512,0l-0.65,0.109
c-1.088,0.406-1.936,0.756-2.543,1.051l0.221-0.263l0.209-0.276c0-0.064-0.385,0.051-1.147,0.346
c-0.637,0.212-1.239,0.595-1.812,1.147c-0.192,0.186-0.457,0.518-0.789,0.996c-0.229,0.331-0.389,0.465-0.471,0.4
c-0.119-0.104-0.067-0.277,0.15-0.526l0.514-0.539l0.387-0.47l0.209-0.291c-0.028-0.195-0.125-0.333-0.291-0.416l-0.43-0.098
l-0.315-0.082l-0.265-0.084c-0.084-0.184-0.094-0.424-0.026-0.719c0.055-0.304,0.17-0.548,0.346-0.731
c0.119-0.101,0.291-0.185,0.513-0.249c0.11-0.028,0.312-0.028,0.606,0c0.258-0.01,0.43-0.143,0.512-0.401
c0.064-0.175,0.078-0.415,0.041-0.719l-0.082-0.567c0-0.166,0.058-0.35,0.166-0.553l0.306-0.414
c0.119-0.139,0.186-0.268,0.192-0.388l-0.11-0.483l-0.275-0.209l-0.318-0.18c-0.133-0.15-0.211-0.283-0.242-0.398
c1.361,0.015,2.539,0.217,3.508,0.635c0.938,0.404,2.791,1.832,5.558,4.285c2.037,1.816,3.979,3.636,5.834,5.458
c0.095,0.379,0.142,0.795,0.142,1.246c0,0.719,0.069,1.234,0.221,1.549c0.154,0.332,0.418,0.502,0.785,0.513
c0.842,0.021,1.319-0.54,1.438-1.675l0.041-6.042v-0.303C99.998,48.573,99.773,46.625,99.32,43.674z"/>

<path class="ajuda" d="M16.78,46.371l0.235,0.097l0.304,0.083l1.022-0.483c0.075-0.057,0.126-0.086,0.194-0.136
c-0.793-0.416-1.66-0.639-2.605-0.657C16.175,45.55,16.455,45.909,16.78,46.371z"/>

<path class="ajuda" d="M60.887,54.984l0.234-1.562c0.082-0.856,0.092-1.437,0.027-1.729l-0.803-0.678
c-0.222-0.078-0.396-0.151-0.537-0.224c-0.361,0.284-0.66,0.536-0.857,0.733c-0.148,0.166-0.592,0.965-1.314,2.373
c0.326,0.34,0.594,0.586,0.789,0.725c0.387,0.277,0.848,0.424,1.383,0.441L60.887,54.984z"/>

<path class="ajuda" d="M13.589,53.689l0.139,0.218c0.092,0.11,0.271,0.2,0.539,0.274l0.016,0.006l-0.541-0.809L13.589,53.689z"/>

<path class="ajuda" d="M24.966,49.524c-0.212,0.082-0.766,0.344-1.659,0.787c-0.553,0.278-0.954,0.448-1.202,0.512
c-0.4,0.106-0.756,0.077-1.07-0.071l-0.021,0.044l-0.152,0.277l0.043,0.317c1.852,1.668,3.06,2.428,3.621,2.279l1.08-0.262
c0.728-0.186,1.418-0.416,2.073-0.692c1.039-0.435,1.929-0.87,2.677-1.306c-1.365-1.206-2.471-1.895-3.312-2.055
C26.366,49.229,25.676,49.284,24.966,49.524z"/>

<path class="ajuda" d="M77.354,57.916c-0.684,0.025-1.069,0.092-1.162,0.191c-0.27,0.305-0.521,0.488-0.762,0.556
c-0.506,0.153-1.146-0.029-1.922-0.556l-0.055-0.041c-0.248-0.166-0.355-0.517-0.318-1.051L73.094,56.6l-0.123-0.304
c-0.074-0.082-0.188-0.155-0.346-0.222l-0.568-0.233l-0.565,0.056l-0.677,0.289c-0.524,0.313-0.85,0.484-0.969,0.513
c-0.404,0.102-0.732-0.181-0.979-0.845l-0.308-1.174l-0.065-0.209l-0.318-0.676c-0.103-0.26-0.073-0.514,0.082-0.762
c0.093-0.156,0.188-0.54,0.291-1.147c0.021-0.114,0.024-0.2,0.041-0.305c-0.192,0.295-0.405,0.632-0.647,1.037
c-0.148,0.249-0.406,0.442-0.775,0.581l-0.857,0.191c-0.699,2.821-1.324,4.83-1.879,6.028c-0.434,0.949-0.938,1.61-1.521,1.991
c-0.517,0.332-1.15,0.506-1.906,0.523c-0.674,0.021-1.203-0.078-1.59-0.291c-0.052-0.025-0.193-0.158-0.394-0.354
c0.015,0.033,0.033,0.072,0.047,0.104c0.232,0.592,0.441,1.146,0.646,1.696l0.152,0.308l2.242,2.364
c1.428,1.632,2.61,3.394,3.551,5.282c1.107,2.209,1.727,4.537,1.854,6.982c1.006,0.052,2.023-0.071,3.057-0.39
c2.691-0.819,4.986-2.819,6.886-6c1.254-2.102,1.771-4.554,1.549-7.354C78.832,62.159,78.283,60.034,77.354,57.916z"/>

<path class="ajuda" d="M19.685,48.555l0.166-0.387l0.068-0.525c0.02-0.203-0.004-0.393-0.068-0.566
c-0.102-0.277-0.285-0.461-0.553-0.555c-0.249-0.092-0.521-0.063-0.816,0.084c-0.285,0.139-0.507,0.34-0.662,0.607
c-0.14,0.258-0.25,0.705-0.332,1.341c-0.074,0.627-0.069,0.981,0.014,1.063c0.074,0.074,0.438-0.055,1.092-0.387
C19.219,48.911,19.584,48.684,19.685,48.555z"/>

<path class="ajuda" d="M12.827,53.532l-0.305-0.513c-0.026-0.11-0.086-0.213-0.18-0.305c-0.166-0.201-0.393-0.275-0.677-0.222
c-0.277,0.048-0.483,0.134-0.622,0.263l-0.221,0.348l-0.028,0.067c-0.063,0.14-0.087,0.31-0.069,0.513
c0.028,0.221,0.103,0.42,0.221,0.594c0.186,0.27,0.43,0.447,0.733,0.539l0.968,0.111l1.119-0.126
c0.139-0.054,0.223-0.114,0.249-0.179c-0.331-0.104-0.571-0.234-0.719-0.4L12.827,53.532z"/>

<path class="ajuda" d="M13.837,46.413c-0.212-0.249-0.54-0.379-0.982-0.387c-0.396,0-0.654,0.074-0.773,0.221
c-0.184,0.24-0.35,0.525-0.497,0.857c-0.194,0.442-0.291,0.849-0.291,1.217c0,0.627,0.18,1.119,0.539,1.479
c0.185,0.175,0.364,0.291,0.54,0.345v-0.07c0.035-0.533,0.119-0.907,0.249-1.118c0.192-0.286,0.622-0.677,1.286-1.175
c0.092-0.074,0.156-0.221,0.193-0.442c0.045-0.267,0.004-0.517-0.125-0.747L13.837,46.413z"/>

<path class="ajuda" d="M60.803,44.462l-0.471-0.524c-0.092-0.11-0.285-0.188-0.58-0.235c-0.387-0.046-0.719,0.056-0.994,0.304
c-0.287,0.24-0.447,0.562-0.484,0.968c-0.02,0.249,0.021,0.484,0.109,0.705c0.094,0.203,0.195,0.313,0.305,0.332l0.431,0.042
l0.401,0.083c0.424,0.185,0.904,0.534,1.449,1.052l0.098,0.096l0.207-0.4c0.109-0.387,0.115-0.895,0.015-1.521
C61.24,45.104,61.08,44.804,60.803,44.462z"/>

<path class="ajuda" d="M67.385,41.255c0.045-0.416-0.004-0.765-0.152-1.051c-0.146-0.269-0.352-0.452-0.606-0.554l-1.203,0.043
c-0.269,0.184-0.512,0.521-0.729,1.01c-0.188,0.387-0.25,1.046-0.195,1.977c0.055,0.913,0.156,1.36,0.305,1.342h0.014
c0.187-0.047,0.613-0.383,1.285-1.01l1.105-1.092C67.287,41.791,67.348,41.569,67.385,41.255z"/>

<path class="ajuda" d="M66.764,49.136c0.164,0.019,0.594-0.083,1.283-0.305l1.217-0.429c0.131-0.073,0.254-0.234,0.375-0.484
c0.146-0.305,0.201-0.594,0.164-0.871c-0.025-0.203-0.119-0.383-0.275-0.54c-0.268-0.276-0.553-0.392-0.856-0.345
c-0.211,0.027-0.396,0.124-0.553,0.291c-0.119,0.138-0.394,0.607-0.813,1.408C66.859,48.703,66.68,49.127,66.764,49.136z"/>

<path class="ajuda" d="M50.986,19.715c-0.312,0.58-0.565,1.166-0.759,1.755c-0.168,0.517-0.259,1.052-0.277,1.604
c0.313-0.147,0.585-0.424,0.817-0.829c0.184-0.332,0.28-0.595,0.289-0.788c0.049-0.489,0.043-0.95-0.013-1.383L50.986,19.715z"/>

<path class="ajuda" d="M43.423,22.991c-0.073-0.201-0.193-0.354-0.359-0.455l-0.192-0.166l-2.835-2.102
c-0.147-0.093-0.28-0.111-0.4-0.056c-0.13,0.056-0.212,0.185-0.249,0.387l-0.138,1.272c-0.037,0.57-0.033,0.963,0.013,1.174
c0.048,0.186,0.259,0.348,0.638,0.484l1.463,0.388l0.153,0.041l1.728,0.333l0.609-0.028l0.055-0.194l-0.291-0.676L43.423,22.991z"/>

</svg>