<?xml version="1.0" encoding="utf-8"?>
<svg stroke="black" stroke-width="0.25" stroke-dasharray="2,2" fill="none" xmlns="http://www.w3.org/2000/svg" xmlns:xlink="http://www.w3.org/1999/xlink" viewBox="0 0 100 100">

<path class="base" d="M88.909,15.981c-0.527-1.373-1.347-2.57-2.46-3.594c-0.91-0.845-2.043-1.49-3.398-1.937
c-1.381-0.455-2.722-0.617-4.021-0.487c-1.446,0.138-2.762,0.557-3.947,1.255c-1.202,0.698-2.172,1.62-2.911,2.765
c-0.344,0.486-1.084,2.029-2.222,4.625c-0.898-0.458-1.764-0.877-2.591-1.25c-0.86-0.374-1.449-0.601-1.766-0.683
c-0.487-0.121-1.048,0.357-1.682,1.438l-0.269,0.546c-3.53-1.961-7.123-3.211-10.78-3.75c-3.885-0.562-7.422-0.253-10.613,0.918
c-0.103-0.392-0.211-0.784-0.327-1.174c-0.82-2.77-1.66-4.146-2.521-4.13c-0.797,0.016-2.275,0.235-4.43,0.658
c-0.353-2.38-0.655-3.943-0.906-4.69c-0.423-1.218-1.243-2.42-2.461-3.606c-1.267-1.243-2.578-2.067-3.935-2.474
c-1.299-0.39-2.684-0.503-4.154-0.341c-1.51,0.162-2.854,0.584-4.032,1.267c-1.381,0.812-2.477,1.917-3.289,3.313
c-0.609,1.047-1.023,2.18-1.243,3.399c-0.292,1.616-0.28,3.078,0.037,4.385c0.3,1.243,0.889,2.403,1.766,3.484
c0.554,0.69,1.291,1.521,2.197,2.483c-2.221,1.565-3.264,2.761-3.124,3.584c0.123,0.69,0.955,2.298,2.498,4.824
c0.227,0.371,0.438,0.714,0.639,1.035c-0.728,0.716-1.484,1.653-2.271,2.815c-0.646,0.95-1.089,1.704-1.333,2.268
c-2.069,1.411-3.498,3.193-4.282,5.346c-0.691,1.884-0.751,3.805-0.183,5.762c0.361,1.266,1.015,2.589,1.956,3.971
c0.039,0.114,0.081,0.228,0.125,0.342c-0.379,0.854-0.625,1.739-0.728,2.656c-0.139,1.128-0.045,2.147,0.279,3.058
c0.132,0.373,0.338,0.731,0.611,1.075c-0.351,1.965-0.479,3.97-0.38,6.014c0.153,3.217,0.874,5.969,2.164,8.255
c-0.654,0.644-1.225,1.388-1.713,2.234c-0.885,1.543-1.376,3.106-1.474,4.69c-0.088,1.413-0.043,2.7,0.134,3.861
c-0.63,2.761-0.817,5.262-0.561,7.505c0.267,2.356,1.007,4.245,2.209,5.676c-0.021,0.071-0.04,0.144-0.053,0.22
c-0.188,1.006-0.228,1.993-0.123,2.959c0.123,1.023,0.398,1.901,0.829,2.632c0.122,0.212,0.32,0.394,0.597,0.549
c0.252,0.146,0.496,0.228,0.731,0.243c1.989,0.122,4.373-0.203,7.15-0.975c2.672-0.747,4.483-1.547,5.434-2.399
c0.15-0.133,0.268-0.263,0.357-0.39l0.929-0.148c0.855,0.68,2.044,1.21,3.574,1.586c1.6,0.39,2.692,0.397,3.277,0.024
c0.357-0.228,0.552-0.808,0.584-1.742c0.033-0.698-0.029-1.511-0.183-2.437c-0.089-0.513-0.223-0.987-0.402-1.425
c-0.09-0.215-0.181-0.395-0.275-0.539c0.807-1.767,1.367-3.861,1.681-6.285c2.196,0.842,4.69,1.255,7.487,1.232
c2.279-0.015,4.576-0.312,6.891-0.889c-0.057,0.13-0.098,0.275-0.128,0.43c-0.503,0.332-1.015,0.73-1.537,1.202
c-0.618,0.56-0.975,0.979-1.072,1.255c-0.081,0.211-0.065,0.382,0.049,0.512c0.216,0.277,1.409,0.595,3.575,0.952
c0.342,0.453,0.759,0.845,1.262,1.167c0.229,0.146,0.468,0.286,0.713,0.42c0.038,0.617,0.394,1.49,1.078,2.626
c0.885,1.478,1.656,2.192,2.314,2.144c0.438-0.032,1.23-0.427,2.375-1.181c1.045-0.696,1.726-1.312,2.053-1.848l1.148-0.06
c0.202,0.279,0.502,0.569,0.903,0.871c1.195,0.886,2.782,1.706,4.765,2.461c1.997,0.764,3.382,1.067,4.152,0.914
c0.333-0.074,0.521-0.357,0.561-0.853c0.074-0.838-0.239-2.023-0.938-3.558c-0.619-1.382-1.224-2.298-1.812-2.749
c0.876-0.729,1.514-1.465,1.909-2.21c0.392-0.756,0.498-1.457,0.325-2.104c0.82-0.419,1.447-0.861,1.879-1.332
c1.17-1.267,1.95-3.227,2.339-5.883c0.375-2.534,0.078-4.938-0.889-7.212c-0.527-1.242-1.295-2.484-2.296-3.727
c0.332-0.533,0.569-1.152,0.7-1.865c0.068-0.376,0.104-0.763,0.108-1.158c0.772-0.128,1.464-0.402,2.072-0.827
c0.601-0.422,1.088-0.963,1.461-1.62c0.365-0.646,0.592-1.395,0.679-2.249c1.404-0.739,2.449-1.869,3.135-3.392
c0.771-1.732,0.889-3.659,0.354-5.78c1.429-3.139,0.969-6.009-1.391-8.607c-0.13-0.144-0.273-0.291-0.422-0.438
c-0.383-2.007-0.768-3.575-1.155-4.703c0.53-0.433,0.998-0.821,1.396-1.158c1.786-1.519,2.785-2.526,2.997-3.021
c0.162-0.39-0.025-1.048-0.561-1.974c-0.435-0.742-1.065-1.606-1.889-2.591c1.778-1.138,3.123-2.062,4.032-2.769
c1.039-0.804,1.831-1.783,2.376-2.936c0.503-1.056,0.787-2.221,0.853-3.496C89.531,18.198,89.34,17.11,88.909,15.981z"/>

<path class="ajuda" d="M16.229,62.378l1.277,3.002c0.747,1.601,1.376,2.323,1.888,2.169c0.512-0.155,0.999-0.824,1.462-2.011
l0.404-1.304c-0.908-0.099-1.802-0.301-2.682-0.608C17.631,63.291,16.849,62.874,16.229,62.378z"/>

<path class="ajuda" d="M31.004,59.617c-0.767,1.316-1.667,2.348-2.7,3.092c0.313,0.259,0.897,0.664,1.762,1.221
c1.284,0.829,2.051,1.203,2.302,1.121c0.146-0.048,0.281-0.373,0.402-0.974c0.13-0.618,0.199-1.316,0.208-2.096
c0-1.891-0.366-3.29-1.089-4.213C31.668,58.364,31.375,58.98,31.004,59.617z"/>

<path class="ajuda" d="M21.907,64.286c0.486,1.001,1.097,1.903,1.837,2.702c0.812,0.885,1.51,1.381,2.095,1.486
c0.462,0.08,0.926-0.771,1.389-2.559c0.312-1.237,0.478-2.179,0.496-2.83c-0.635,0.375-1.316,0.654-2.043,0.832
C24.398,64.231,23.14,64.353,21.907,64.286z"/>

<path class="ajuda" d="M61.727,61.006c0.017-0.492,0.07-0.967,0.16-1.425c-0.451,0.499-0.991,1.416-1.621,2.754
c-0.747,1.591-0.926,2.428-0.536,2.509c0.35,0.081,0.935,0.033,1.754-0.146l0.852-0.222C61.89,63.426,61.687,62.269,61.727,61.006z"/>

<path class="ajuda" d="M69.062,69.875c-1.381-0.146-2.941-1.007-4.679-2.583c-0.859-0.776-1.509-1.646-1.952-2.605l-0.874,1.388
c-0.674,1.283-0.853,2.156-0.536,2.619c0.146,0.227,0.764,0.288,1.852,0.183c0.817-0.08,1.607-0.223,2.37-0.431
c-0.144,0.284-0.283,0.642-0.421,1.076c-0.283,0.86-0.275,1.291,0.024,1.291l2.583-0.317c0.95-0.172,1.804-0.384,2.563-0.632
C69.665,69.899,69.354,69.906,69.062,69.875z"/>

<path class="ajuda" d="M41.383,23.9c0.219-0.357,0.435-0.646,0.646-0.865c0.886,0.333,1.848,0.926,2.887,1.779l1.292,1.182
l-0.316,0.438l-2.631-0.292c-1.438-0.138-2.319-0.15-2.644-0.037C40.681,25.365,40.937,24.631,41.383,23.9"/>


<path class="ajuda" d="M59.511,27.396l-3.204,0.037l-2.619,0.098l-0.158-0.402l-0.085-0.146l1.522-1.193
c1.193-0.821,2.258-1.288,3.191-1.401l0.572,0.938C59.129,26.08,59.389,26.771,59.511,27.396"/>

<path class="ajuda" d="M41.104,19.965l-2.011,2.68c-0.121-0.495-0.23-1.007-0.329-1.535c-0.195-1.048-0.215-1.637-0.061-1.767
C38.98,19.108,39.779,19.315,41.104,19.965"/>

<path class="ajuda" d="M62.057,21.755c0,0.268-0.22,1.093-0.658,2.473l-1.949-2.473l1.475-0.195
C61.671,21.512,62.048,21.577,62.057,21.755"/>

<path class="ajuda" d="M59.337,31.604c-0.153-0.32-0.277-0.492-0.375-0.517c-0.097-0.016-0.117,0.11-0.061,0.378
c0.228,0.958,0.239,1.583,0.036,1.875c-0.179,0.252-0.471,0.443-0.877,0.573c-0.357,0.113-0.743,0.167-1.157,0.158
c-0.3,0-0.763-0.098-1.389-0.292l-1.827-0.633c-1.535-0.528-2.811-0.865-3.825-1.011l-2.851-0.195l-3.057,0.061l-2.157,0.037
c-0.909,0.008-1.531-0.268-1.864-0.829c-0.122-0.203-0.138-0.536-0.049-0.999c0.081-0.406,0.187-0.702,0.317-0.889
c0.122-0.17,0.171-0.272,0.146-0.305c-0.041-0.032-0.177,0.044-0.409,0.228c-1.03-0.093-1.876,0.089-2.539,0.552
c-0.577,0.397-0.979,0.99-1.207,1.778c-0.69,2.363,0.061,4.531,2.254,6.505c2.298,2.079,5.576,3.33,9.831,3.752
c2.258,0.228,4.487,0.134,6.688-0.28c2.907-0.552,4.986-1.592,6.237-3.118c0.349-0.422,0.656-0.983,0.925-1.681
c0.309-0.812,0.464-1.567,0.464-2.266C62.577,32.632,61.489,31.673,59.337,31.604z"/>

</svg>
