<?xml version="1.0" encoding="utf-8"?>
<svg stroke="black" stroke-width="0.25" stroke-dasharray="2,2" fill="none" xmlns="http://www.w3.org/2000/svg" xmlns:xlink="http://www.w3.org/1999/xlink" viewBox="0 0 100 100">

<path class="base" d="M88.909,15.981
c-0.527-1.373-1.347-2.57-2.46-3.594c-0.91-0.845-2.043-1.49-3.398-1.937c-1.381-0.455-2.722-0.617-4.021-0.487
c-1.445,0.138-2.762,0.557-3.946,1.255c-1.202,0.698-2.172,1.62-2.911,2.765c-0.344,0.486-1.084,2.029-2.222,4.625
c-0.898-0.458-1.765-0.877-2.591-1.25c-0.86-0.374-1.449-0.601-1.767-0.683c-0.487-0.121-1.048,0.357-1.682,1.438l-0.269,0.546
c-3.531-1.961-7.123-3.211-10.781-3.75c-3.884-0.562-7.421-0.253-10.612,0.918c-0.103-0.392-0.211-0.784-0.327-1.174
c-0.82-2.77-1.66-4.146-2.521-4.13c-0.797,0.016-2.275,0.235-4.43,0.658c-0.353-2.38-0.655-3.943-0.906-4.69
c-0.423-1.218-1.243-2.42-2.461-3.606c-1.267-1.243-2.578-2.067-3.935-2.474c-1.299-0.39-2.684-0.503-4.154-0.341
c-1.51,0.162-2.854,0.584-4.032,1.267c-1.381,0.812-2.477,1.917-3.289,3.313c-0.609,1.047-1.023,2.18-1.243,3.399
c-0.292,1.616-0.28,3.078,0.037,4.385c0.3,1.243,0.889,2.403,1.766,3.484c0.554,0.69,1.291,1.521,2.197,2.483
c-2.221,1.565-3.264,2.761-3.124,3.584c0.123,0.69,0.955,2.298,2.498,4.824c0.227,0.371,0.438,0.714,0.639,1.035
c-0.728,0.716-1.484,1.653-2.271,2.815c-0.646,0.95-1.089,1.704-1.333,2.268c-2.069,1.411-3.498,3.193-4.282,5.346
c-0.691,1.884-0.751,3.805-0.183,5.762c0.361,1.266,1.015,2.589,1.956,3.971c0.039,0.114,0.081,0.228,0.125,0.342
c-0.379,0.854-0.625,1.739-0.728,2.656c-0.139,1.128-0.045,2.146,0.279,3.059c0.132,0.373,0.338,0.73,0.611,1.074
c-0.351,1.965-0.479,3.971-0.38,6.014c0.153,3.218,0.874,5.97,2.164,8.256c-0.654,0.644-1.225,1.388-1.713,2.234
c-0.885,1.543-1.376,3.105-1.474,4.689c-0.088,1.413-0.043,2.699,0.134,3.861c-0.63,2.761-0.817,5.262-0.561,7.504
c0.267,2.356,1.007,4.246,2.209,5.677c-0.021,0.071-0.04,0.144-0.053,0.22c-0.188,1.006-0.228,1.993-0.123,2.959
c0.123,1.023,0.398,1.901,0.829,2.633c0.122,0.211,0.32,0.394,0.597,0.549c0.252,0.146,0.496,0.228,0.731,0.242
c1.989,0.123,4.373-0.203,7.15-0.975c2.672-0.747,4.483-1.547,5.434-2.398c0.15-0.134,0.268-0.264,0.357-0.391l0.929-0.148
c0.855,0.681,2.044,1.211,3.574,1.586c1.6,0.391,2.692,0.397,3.277,0.024c0.357-0.228,0.552-0.808,0.584-1.741
c0.033-0.699-0.029-1.512-0.183-2.438c-0.089-0.514-0.223-0.987-0.402-1.426c-0.09-0.215-0.181-0.395-0.275-0.539
c0.807-1.766,1.367-3.86,1.681-6.284c2.196,0.842,4.69,1.255,7.487,1.231c2.279-0.015,4.576-0.312,6.891-0.889
c-0.057,0.13-0.098,0.275-0.128,0.43c-0.503,0.332-1.015,0.73-1.537,1.203c-0.618,0.559-0.975,0.979-1.072,1.254
c-0.081,0.211-0.065,0.383,0.049,0.512c0.216,0.277,1.409,0.596,3.575,0.953c0.342,0.453,0.76,0.845,1.262,1.166
c0.229,0.146,0.469,0.287,0.714,0.42c0.038,0.617,0.394,1.49,1.077,2.627c0.886,1.478,1.656,2.191,2.314,2.144
c0.438-0.032,1.23-0.427,2.375-1.181c1.045-0.696,1.727-1.312,2.053-1.848l1.148-0.061c0.202,0.279,0.502,0.568,0.902,0.871
c1.195,0.886,2.783,1.706,4.766,2.461c1.997,0.764,3.382,1.066,4.152,0.914c0.332-0.074,0.521-0.357,0.561-0.854
c0.074-0.838-0.238-2.022-0.938-3.558c-0.619-1.382-1.225-2.298-1.812-2.749c0.876-0.729,1.514-1.465,1.909-2.21
c0.392-0.756,0.498-1.457,0.325-2.104c0.82-0.418,1.447-0.86,1.879-1.332c1.17-1.267,1.949-3.227,2.339-5.883
c0.375-2.533,0.078-4.938-0.89-7.212c-0.526-1.241-1.295-2.483-2.295-3.727c0.332-0.533,0.568-1.152,0.699-1.865
c0.068-0.376,0.104-0.763,0.108-1.158c0.772-0.128,1.464-0.401,2.071-0.827c0.602-0.422,1.089-0.963,1.461-1.619
c0.365-0.646,0.593-1.396,0.68-2.25c1.404-0.738,2.449-1.869,3.135-3.392c0.771-1.731,0.889-3.659,0.354-5.78
c1.43-3.139,0.97-6.009-1.391-8.606c-0.13-0.144-0.272-0.291-0.422-0.438c-0.383-2.007-0.768-3.575-1.154-4.703
c0.529-0.433,0.998-0.821,1.396-1.158c1.786-1.519,2.785-2.526,2.997-3.021c0.162-0.39-0.025-1.048-0.561-1.974
c-0.436-0.742-1.065-1.606-1.89-2.591c1.778-1.138,3.123-2.062,4.032-2.769c1.039-0.804,1.831-1.783,2.376-2.936
c0.503-1.056,0.787-2.221,0.853-3.496C89.531,18.198,89.34,17.11,88.909,15.981z"/>

<path class="ajuda" d="M16.229,62.378l1.277,3.002
c0.747,1.601,1.376,2.323,1.888,2.169s0.999-0.824,1.462-2.011l0.404-1.304c-0.908-0.1-1.802-0.301-2.682-0.608
C17.631,63.291,16.849,62.874,16.229,62.378z"/>

<path class="ajuda" d="M31.004,59.617
c-0.767,1.316-1.667,2.348-2.7,3.092c0.313,0.259,0.897,0.664,1.762,1.221c1.284,0.829,2.051,1.203,2.302,1.121
c0.146-0.048,0.281-0.373,0.402-0.974c0.13-0.618,0.199-1.316,0.208-2.097c0-1.891-0.366-3.289-1.089-4.213
C31.668,58.364,31.375,58.98,31.004,59.617z"/>

<path class="ajuda" d="M21.907,64.286
c0.486,1.001,1.097,1.903,1.837,2.702c0.812,0.885,1.51,1.381,2.095,1.486c0.462,0.08,0.926-0.771,1.389-2.56
c0.312-1.237,0.478-2.179,0.496-2.83c-0.635,0.375-1.316,0.654-2.043,0.832C24.398,64.23,23.14,64.354,21.907,64.286z"/>

<path class="ajuda" d="M61.727,61.006
c0.018-0.492,0.07-0.967,0.16-1.425c-0.451,0.499-0.99,1.416-1.621,2.754c-0.746,1.591-0.926,2.429-0.535,2.509
c0.35,0.081,0.935,0.033,1.754-0.146l0.852-0.222C61.891,63.426,61.688,62.27,61.727,61.006z"/>

<path class="ajuda" d="M69.062,69.875
c-1.381-0.146-2.941-1.007-4.68-2.583c-0.859-0.776-1.509-1.646-1.951-2.604l-0.875,1.388c-0.674,1.282-0.853,2.155-0.535,2.618
c0.146,0.228,0.764,0.289,1.852,0.184c0.816-0.08,1.607-0.223,2.37-0.432c-0.144,0.285-0.283,0.643-0.421,1.076
c-0.283,0.86-0.275,1.291,0.023,1.291l2.584-0.316c0.949-0.172,1.803-0.385,2.562-0.633C69.665,69.898,69.354,69.906,69.062,69.875
z"/>

<path class="ajuda" d="M41.383,23.9
c0.219-0.357,0.435-0.646,0.646-0.865c0.886,0.333,1.848,0.926,2.887,1.779l1.292,1.182l-0.316,0.438l-2.631-0.292
c-1.438-0.138-2.319-0.15-2.644-0.037C40.681,25.365,40.937,24.631,41.383,23.9"/>

<path class="ajuda" d="M59.512,27.396l-3.205,0.037l-2.619,0.098
l-0.158-0.402l-0.084-0.146l1.521-1.193c1.193-0.821,2.258-1.288,3.191-1.401l0.572,0.938
C59.129,26.08,59.389,26.771,59.512,27.396"/>

<path class="ajuda" d="M41.104,19.965l-2.011,2.68
c-0.121-0.495-0.23-1.007-0.329-1.535c-0.195-1.048-0.215-1.637-0.061-1.767C38.98,19.108,39.779,19.315,41.104,19.965"/>

<path class="ajuda" d="M62.057,21.755c0,0.268-0.22,1.093-0.658,2.473
l-1.948-2.473l1.475-0.195C61.671,21.512,62.048,21.577,62.057,21.755"/>

<path class="ajuda" d="M59.337,31.604
c-0.153-0.32-0.276-0.492-0.375-0.517c-0.097-0.016-0.116,0.11-0.062,0.378c0.229,0.958,0.24,1.583,0.037,1.875
c-0.18,0.252-0.472,0.443-0.877,0.573c-0.357,0.113-0.744,0.167-1.158,0.158c-0.299,0-0.762-0.098-1.389-0.292l-1.826-0.633
c-1.535-0.528-2.812-0.865-3.826-1.011l-2.851-0.195l-3.057,0.061l-2.157,0.037c-0.909,0.008-1.531-0.268-1.864-0.829
c-0.122-0.203-0.138-0.536-0.049-0.999c0.081-0.406,0.187-0.702,0.317-0.889c0.122-0.17,0.171-0.272,0.146-0.305
c-0.041-0.032-0.177,0.044-0.409,0.228c-1.03-0.093-1.876,0.089-2.539,0.552c-0.577,0.397-0.979,0.99-1.207,1.778
c-0.69,2.363,0.061,4.531,2.254,6.505c2.298,2.079,5.576,3.33,9.831,3.752c2.258,0.228,4.487,0.134,6.688-0.28
c2.907-0.552,4.986-1.592,6.237-3.118c0.349-0.422,0.655-0.983,0.925-1.681c0.309-0.812,0.464-1.567,0.464-2.266
C62.577,32.632,61.488,31.673,59.337,31.604z"/>

<path class="ajuda" d="M77.165,13.688
c1.335-0.958,2.829-1.322,4.483-1.093c1.663,0.238,3.005,0.991,4.028,2.26c1.024,1.27,1.428,2.69,1.217,4.263
c-0.214,1.572-0.984,2.833-2.311,3.783c-1.334,0.958-2.832,1.323-4.495,1.094c-1.654-0.229-2.993-0.979-4.015-2.248
c-1.025-1.277-1.43-2.702-1.217-4.274S75.839,14.638,77.165,13.688"/>

<path class="ajuda" d="M29.668,5.102
c1.147,1.311,1.638,2.805,1.474,4.483c-0.155,1.687-0.913,3.067-2.272,4.14c-1.368,1.081-2.939,1.539-4.716,1.376
c-1.777-0.165-3.239-0.901-4.385-2.211c-1.146-1.31-1.642-2.808-1.486-4.495c0.155-1.687,0.917-3.067,2.284-4.14
c1.368-1.073,2.94-1.527,4.717-1.363C27.06,3.055,28.522,3.792,29.668,5.102"/>

<path class="ajuda" d="M51.53,18.54l-0.245,1.203
c-0.09,0.434-0.163,0.635-0.221,0.602c-0.141-0.081-0.141-0.605,0-1.571c0.058-0.353,0-0.623-0.172-0.811
c-0.107-0.123-0.307-0.242-0.602-0.356c-0.803-0.295-2.109-0.314-3.918-0.061c-1.663,0.237-2.899,0.561-3.709,0.97
c-0.311,0.156-0.495,0.205-0.553,0.147c-0.057-0.066,0.042-0.192,0.295-0.381c-0.565-0.343-1.429-0.622-2.592-0.835L37.86,17.36
c-0.426,0.377-0.639,1.118-0.639,2.223c0,0.901,0.082,1.749,0.246,2.542c0.131,0.647,0.295,1.176,0.492,1.585
c0.287-0.205,0.446-0.275,0.479-0.209c0.034,0.066-0.033,0.226-0.196,0.479c-0.229,0.36-0.496,0.913-0.799,1.658
c-0.401,0.975-0.647,1.789-0.737,2.444c-0.083,0.549-0.119,0.987-0.111,1.314l0.074,1.007l-0.11,0.344
c-0.058,0.147-0.106,0.208-0.148,0.184c-0.064-0.155-0.135-0.425-0.209-0.81c-0.089-0.426-0.134-0.758-0.134-0.995
c0-0.91,0.139-1.843,0.417-2.801c0.295-1.024,0.676-1.81,1.142-2.358c-0.221-0.565-0.413-1.114-0.577-1.646
c-0.312-1.023-0.467-1.924-0.467-2.702c0-1.302,0.27-2.194,0.81-2.677c0.304-0.262,1.02-0.291,2.15-0.086
c1.204,0.213,2.24,0.598,3.108,1.155c1.162-0.541,2.521-0.9,4.077-1.081c1.589-0.188,2.83-0.115,3.723,0.221
c0.344,0.123,0.651,0.373,0.919,0.749c0.623-0.704,1.925-0.725,3.907-0.061c1.563,0.524,2.742,1.089,3.536,1.695l3.317,0.099
c0.902,0.156,1.512,0.385,1.831,0.688c0.131,0.13,0.195,0.376,0.195,0.736c0,0.605-0.163,1.388-0.492,2.346
c-0.311,0.925-0.683,1.765-1.116,2.518c0.622,1.621,0.814,3.255,0.577,4.901c-0.172,1.154-0.394,1.867-0.664,2.137
c-0.105,0.115-0.24,0.098-0.404-0.049c-0.165-0.147-0.188-0.348-0.073-0.602c0.204-0.425,0.359-1.167,0.465-2.223
c0.133-1.368,0.051-2.6-0.245-3.697c-0.212,0.099-0.323,0.078-0.331-0.061c-0.009-0.131,0.053-0.266,0.185-0.405
c0.146-0.172,0.466-0.896,0.959-2.174c0.522-1.375,0.784-2.28,0.784-2.714c0-0.221-0.037-0.368-0.109-0.442
c-0.222-0.221-0.856-0.385-1.905-0.491c-1.056-0.115-2.058-0.119-3.01-0.013c-0.284,0.033-0.519,0-0.698-0.098
c-0.197-0.106-0.106-0.217,0.27-0.332c-0.099-0.106-0.476-0.295-1.131-0.564c-0.736-0.312-1.478-0.57-2.223-0.774
C52.898,17.737,51.745,17.811,51.53,18.54"/>
</svg>
