<?xml version="1.0" encoding="utf-8"?>
<!-- Generator: Adobe Illustrator 19.0.0, SVG Export Plug-In . SVG Version: 6.00 Build 0)  -->
<svg version="1.1" id="Camada_1" xmlns="http://www.w3.org/2000/svg" xmlns:xlink="http://www.w3.org/1999/xlink" x="0px" y="0px"
	 viewBox="0 0 100 100" style="enable-background:new 0 0 100 100;" xml:space="preserve">
<path id="bg1" d="M50,0C26.7,0,7.9,18.9,7.9,42.1C7.9,65.4,32.1,100,50,100s42.1-34.6,42.1-57.9C92.1,18.9,73.3,0,50,0z
	 M25.8,74.6c-7.5-5.2-8.5-16.8-8.5-16.8s11.2-3.2,18.7,2c7.5,5.2,8.5,16.8,8.5,16.8S33.4,79.8,25.8,74.6z M74.2,74.6
	c-7.5,5.2-18.7,2-18.7,2s1-11.6,8.5-16.8c7.5-5.2,18.7-2,18.7-2S81.7,69.4,74.2,74.6z"/>
</svg>